<?xml version="1.0" standalone="no"?>
<!DOCTYPE svg PUBLIC "-//W3C//DTD SVG 1.0//EN" "http://www.w3.org/TR/2001/REC-SVG-20010904/DTD/svg10.dtd">
<svg xmlns="http://www.w3.org/2000/svg" xmlns:xlink="http://www.w3.org/1999/xlink" id="body_1" width="80" height="80">

<g transform="matrix(0.20000002 0 0 0.20000002 0 0)">
	<g transform="matrix(1 0 0 1 0 0)">
		<g>
            <path d="M191.6 127.642C 152.725 132.027 123.883 164.45 123.852 203.8C 123.835 225.42 131.879 241.054 148.8 252.292C 153.774 255.595 153.923 255.485 150.072 251.359C 121.321 220.554 125.313 173.165 158.784 147.943C 178.944 132.75 207.186 130.081 230.218 141.19C 240.501 146.15 250.607 154.821 257.036 164.2L257.036 164.2L259.23 167.4L200.215 167.501C 167.757 167.557 141.201 167.737 141.201 167.901C 141.202 168.066 142.067 169.64 143.124 171.4L143.124 171.4L145.046 174.6L157.732 174.706L170.418 174.811L170.191 178.106C 170.066 179.918 169.871 182.165 169.757 183.1L169.757 183.1L169.551 184.8L160.375 184.8C 155.329 184.8 151.2 184.926 151.2 185.079C 151.2 185.233 152.055 186.852 153.1 188.678L153.1 188.678L155 191.997L162.109 191.999L169.219 192L168.971 195.1C 168.835 196.805 168.24 205.103 167.65 213.54L167.65 213.54L166.578 228.879L168.187 226.94C 169.072 225.873 170.787 223.948 171.998 222.662L171.998 222.662L174.2 220.325L175.2 206.262L176.2 192.2L199.9 192.097C 220.999 192.005 223.6 192.061 223.6 192.609C 223.6 193.636 224.838 209.773 224.922 209.838C 225.366 210.185 231.776 212.757 231.897 212.637C 231.985 212.548 231.774 208.544 231.428 203.738C 231.082 198.932 230.799 194.325 230.8 193.5L230.8 193.5L230.8 192L237.955 192L245.11 192L247.1 188.5L249.091 185L239.604 184.893L230.116 184.786L229.858 181.733C 229.716 180.053 229.6 177.806 229.6 176.74L229.6 176.74L229.6 174.8L242.328 174.8L255.057 174.8L256.965 171.4C 259.231 167.363 259.197 167.373 260.799 170.3C 272.05 190.853 271.999 216.403 260.668 236.867C 254.587 247.85 243.824 258.704 234.093 263.667C 219.936 270.888 204.431 257.108 210.007 242.263C 215.967 226.398 239.512 228.315 242.981 244.947L242.981 244.947L243.493 247.4L243.795 244.677C 246.694 218.601 210.194 203.959 184.656 220.951C 173.78 228.188 162.161 246.463 160.342 259.194C 160.154 260.509 172.168 268 174.465 268C 174.589 268 174.789 265.885 174.909 263.3C 175.894 242.148 192.427 224.993 214.022 222.714C 219.018 222.186 223.796 222.857 227.297 224.578C 228.454 225.146 229.04 225.494 228.6 225.35C 217.298 221.658 203.733 231.931 202.042 245.464C 199.451 266.198 221.761 279.856 239.828 268.596C 268.842 250.512 282.338 216.755 273.73 183.8C 264.299 147.699 228.826 123.444 191.6 127.642zM265.2 128.2C 265.2 128.53 265.47 128.8 265.8 128.8C 266.261 128.8 266.4 129.311 266.4 131C 266.4 132.933 266.497 133.2 267.2 133.2C 267.903 133.2 268 132.933 268 131C 268 129.067 268.097 128.8 268.8 128.8C 269.244 128.8 269.6 128.533 269.6 128.2C 269.6 127.739 269.089 127.6 267.4 127.6C 265.711 127.6 265.2 127.739 265.2 128.2zM270.4 130.372C 270.4 133.39 271.55 134.805 271.641 131.9L271.641 131.9L271.682 130.6L272.099 131.9C 272.36 132.715 272.778 133.2 273.219 133.2C 273.64 133.2 274.128 132.679 274.435 131.9L274.435 131.9L274.949 130.6L275.1 131.9C 275.41 134.573 276.4 133.431 276.4 130.4C 276.4 126.728 274.978 126.207 273.944 129.5L273.944 129.5L273.347 131.4L272.742 129.6C 271.668 126.402 270.4 126.82 270.4 130.372zM196.4 179.8L196.4 184.8L186.571 184.8L176.742 184.8L177.022 180.1C 177.176 177.515 177.38 175.265 177.475 175.1C 177.57 174.935 181.867 174.8 187.024 174.8L187.024 174.8L196.4 174.8L196.4 179.8zM222.576 178.7C 222.714 180.845 222.906 183.095 223.003 183.7L223.003 183.7L223.18 184.8L213.39 184.8L203.6 184.8L203.6 179.8L203.6 174.8L212.963 174.8L222.325 174.8L222.576 178.7" stroke="none" fill="#000000" fill-rule="nonzero" />
		</g>
	</g>
</g>
</svg>